<svg width="47" height="47" viewBox="0 0 47 47" fill="none" xmlns="http://www.w3.org/2000/svg">
<path d="M23.5 36.7187C22.6971 36.7187 22.0312 36.0529 22.0312 35.25V33.2916C22.0312 32.4887 22.6971 31.8229 23.5 31.8229C24.3029 31.8229 24.9688 32.4887 24.9688 33.2916V35.25C24.9688 36.0529 24.3029 36.7187 23.5 36.7187Z" fill="#292D32"/>
<path d="M23.5 44.5521C22.6971 44.5521 22.0312 43.8863 22.0312 43.0833V41.125C22.0312 40.3221 22.6971 39.6562 23.5 39.6562C24.3029 39.6562 24.9688 40.3221 24.9688 41.125V43.0833C24.9688 43.8863 24.3029 44.5521 23.5 44.5521Z" fill="#292D32"/>
<path d="M3.91661 44.5521C3.79911 44.5521 3.68161 44.5325 3.56411 44.5129C2.78078 44.3171 2.2912 43.5142 2.48703 42.7308L4.44536 34.8975C4.6412 34.1142 5.42453 33.6246 6.22745 33.8204C7.01078 34.0162 7.50036 34.8192 7.30453 35.6025L5.3462 43.4358C5.16995 44.1017 4.58245 44.5521 3.91661 44.5521Z" fill="#292D32"/>
<path d="M42.5989 44.0676C41.933 44.0676 41.3455 43.6172 41.1693 42.9514L39.2109 35.118C39.0151 34.3347 39.4851 33.5318 40.288 33.3359C41.0714 33.1401 41.8743 33.6101 42.0701 34.413L44.0284 42.2464C44.2243 43.0297 43.7543 43.8326 42.9514 44.0284C42.8339 44.048 42.7164 44.0676 42.5989 44.0676Z" fill="#292D32"/>
<path d="M37.4825 10.3792C37.4825 10.9667 36.9929 11.4367 36.425 11.4367H10.8296C10.2421 11.4367 9.77209 10.9471 9.77209 10.3792C9.77209 9.79171 10.2617 9.32171 10.8296 9.32171H12.2788L12.8271 6.75629C13.3363 4.24962 14.3938 1.95837 18.6238 1.95837H28.5917C32.8217 1.95837 33.8988 4.24962 34.4079 6.73671L34.9563 9.30212H36.4054C36.9929 9.30212 37.4825 9.79171 37.4825 10.3792Z" fill="#292D32"/>
<path d="M38.0895 18.4084C37.8741 16.0584 37.2475 13.5713 32.6845 13.5713H14.5504C9.98746 13.5713 9.38037 16.078 9.14537 18.4084L8.34246 27.0642C8.24454 28.1413 8.59704 29.2184 9.34121 30.0409C10.105 30.8634 11.1625 31.3334 12.2983 31.3334H14.9616C17.2725 31.3334 17.7033 30.0213 17.997 29.14L18.2908 28.2784C18.6237 27.2992 18.702 27.0642 19.975 27.0642H27.26C28.5329 27.0642 28.572 27.2013 28.9441 28.2784L29.2379 29.14C29.512 30.0213 29.9625 31.3334 32.2537 31.3334H34.917C36.0333 31.3334 37.1104 30.8634 37.8741 30.0409C38.6183 29.238 38.9708 28.1413 38.8729 27.0642L38.0895 18.4084ZM19.3483 21.385H15.0987C14.5112 21.385 14.0412 20.8955 14.0412 20.3275C14.0412 19.7596 14.5308 19.27 15.0987 19.27H19.3679C19.9554 19.27 20.4254 19.7596 20.4254 20.3275C20.4254 20.8955 19.9358 21.385 19.3483 21.385ZM32.1362 21.385H27.867C27.2795 21.385 26.8095 20.8955 26.8095 20.3275C26.8095 19.7596 27.2991 19.27 27.867 19.27H32.1362C32.7237 19.27 33.1937 19.7596 33.1937 20.3275C33.1937 20.8955 32.7237 21.385 32.1362 21.385Z" fill="#292D32"/>
</svg>
