<svg width="47" height="47" viewBox="0 0 47 47" fill="none" xmlns="http://www.w3.org/2000/svg">
<path d="M39.1666 23.5V35.25C39.1666 39.5779 35.6612 43.0833 31.3333 43.0833H15.6666C11.3387 43.0833 7.83325 39.5779 7.83325 35.25V23.5C7.83325 22.4229 8.7145 21.5416 9.79159 21.5416H13.6495C14.7266 21.5416 15.6078 22.4229 15.6078 23.5V29.6491C15.6078 31.0983 16.4108 32.43 17.6837 33.1154C18.2516 33.4287 18.8783 33.5854 19.5245 33.5854C20.2687 33.5854 21.0128 33.37 21.6591 32.9391L23.5195 31.725L25.2428 32.8804C26.4374 33.6833 27.9649 33.7812 29.2378 33.0958C30.5303 32.4104 31.3333 31.0983 31.3333 29.6295V23.5C31.3333 22.4229 32.2145 21.5416 33.2916 21.5416H37.2083C38.2853 21.5416 39.1666 22.4229 39.1666 23.5Z" fill="#292D32"/>
<path d="M42.1041 13.7083V15.6666C42.1041 17.8208 41.0662 19.5833 38.1874 19.5833H8.81242C5.81617 19.5833 4.89575 17.8208 4.89575 15.6666V13.7083C4.89575 11.5541 5.81617 9.79163 8.81242 9.79163H38.1874C41.0662 9.79163 42.1041 11.5541 42.1041 13.7083Z" fill="#292D32"/>
<path d="M22.7951 9.79161H11.9851C11.3193 9.06703 11.3389 7.95078 12.0439 7.24578L14.8247 4.46495C15.5493 3.74036 16.7439 3.74036 17.4684 4.46495L22.7951 9.79161Z" fill="#292D32"/>
<path d="M34.9953 9.79161H24.1853L29.512 4.46495C30.2366 3.74036 31.4311 3.74036 32.1557 4.46495L34.9366 7.24578C35.6416 7.95078 35.6611 9.06703 34.9953 9.79161Z" fill="#292D32"/>
<path d="M27.358 21.5416C28.4351 21.5416 29.3163 22.4229 29.3163 23.5V29.6295C29.3163 31.1962 27.5734 32.1362 26.2809 31.255L24.5184 30.08C23.8722 29.6491 23.0301 29.6491 22.3642 30.08L20.5234 31.2941C19.2309 32.1558 17.5076 31.2158 17.5076 29.6687V23.5C17.5076 22.4229 18.3888 21.5416 19.4659 21.5416H27.358Z" fill="#292D32"/>
</svg>
