<svg width="60" height="60" viewBox="0 0 60 60" fill="none" xmlns="http://www.w3.org/2000/svg">
<path d="M1 41H6C7.105 41 8 41.895 8 43V55C8 56.105 7.105 57 6 57H1" stroke="#252525" stroke-width="2" stroke-miterlimit="10"/>
<path d="M5 44H3V46H5V44Z" fill="#252525"/>
<path d="M8 44H9.978C10.599 44 11.182 43.716 11.56 43.223C13.097 41.213 17.693 36 24 36H38C39.657 36 41 37.343 41 39C41 40.657 39.657 42 38 42H26" stroke="#252525" stroke-width="2" stroke-miterlimit="10"/>
<path d="M39.464 41.619L54.278 33.318C54.651 33.11 55.08 33 55.507 33C56.884 33 58 34.116 58 35.493C58 36.233 57.671 36.934 57.103 37.408L43.08 49.1C42.367 49.694 41.543 50.141 40.656 50.414L30.581 53.514C29.533 53.836 28.442 54 27.346 54H8" stroke="#252525" stroke-width="2" stroke-miterlimit="10"/>
<path d="M40 9V15" stroke="#252525" stroke-width="2" stroke-miterlimit="10"/>
<path d="M36 3V9" stroke="#252525" stroke-width="2" stroke-miterlimit="10"/>
<path d="M26 22V28" stroke="#252525" stroke-width="2" stroke-miterlimit="10"/>
<path d="M22 29V33" stroke="#252525" stroke-width="2" stroke-miterlimit="10"/>
<path d="M26.382 13.3822C28.9684 10.7958 29.7747 7.40868 28.183 5.81692C26.5912 4.22516 23.2041 5.03149 20.6177 7.6179C18.0313 10.2043 17.2249 13.5914 18.8167 15.1832C20.4085 16.7749 23.7956 15.9686 26.382 13.3822Z" stroke="#252525" stroke-width="2" stroke-miterlimit="10"/>
<path d="M18.8159 15.1829L21.8159 18.1829C23.4079 19.7749 26.7949 18.9679 29.3819 16.3819C31.9679 13.7949 32.7749 10.4079 31.1829 8.81592L28.1829 5.81592" stroke="#252525" stroke-width="2" stroke-miterlimit="10"/>
<path d="M43.2661 29.7529C45.2261 28.8159 45.5771 25.4799 44.0501 22.3019C42.5231 19.1249 39.6951 17.3089 37.7351 18.2459C35.7751 19.1829 35.4241 22.5189 36.9511 25.6969C38.4781 28.8749 41.3051 30.6909 43.2661 29.7529Z" stroke="#252525" stroke-width="2" stroke-miterlimit="10"/>
<path d="M37.6951 18.266L33.6981 20.272C31.7731 21.235 31.4331 24.542 32.9501 27.698C34.4771 30.875 37.3051 32.691 39.2651 31.754C39.2781 31.748 43.3041 29.735 43.3041 29.735" stroke="#252525" stroke-width="2" stroke-miterlimit="10"/>
<path d="M36 11V13" stroke="#252525" stroke-width="2" stroke-miterlimit="10"/>
</svg>
