<svg width="60" height="60" viewBox="0 0 60 60" fill="none" xmlns="http://www.w3.org/2000/svg">
<path d="M24 47C27.866 47 31 45.433 31 43.5C31 41.567 27.866 40 24 40C20.134 40 17 41.567 17 43.5C17 45.433 20.134 47 24 47Z" stroke="#252525" stroke-width="2" stroke-miterlimit="10"/>
<path d="M30.987 43.29C32.209 44.314 34.442 45 37 45C40.866 45 44 43.433 44 41.5C44 39.567 40.866 38 37 38C33.134 38 30 39.567 30 41.5C30 41.57 30 41.634 30.008 41.703" stroke="#252525" stroke-width="2" stroke-miterlimit="10"/>
<path d="M17 48.5C17 50.433 20.134 52 24 52C27.866 52 31 50.433 31 48.5" stroke="#252525" stroke-width="2" stroke-miterlimit="10"/>
<path d="M31 43.5V53.5C31 55.433 27.866 57 24 57C20.134 57 17 55.433 17 53.5V43.5" stroke="#252525" stroke-width="2" stroke-miterlimit="10"/>
<path d="M31.002 53.302C32.226 54.319 34.452 55 37 55C40.866 55 44 53.433 44 51.5V41.5" stroke="#252525" stroke-width="2" stroke-miterlimit="10"/>
<path d="M31 48.3C32.224 49.318 34.45 50 37 50C40.866 50 44 48.433 44 46.5" stroke="#252525" stroke-width="2" stroke-miterlimit="10"/>
<path d="M29.0001 6.00001H25.2431C24.4471 6.00001 23.6841 5.68401 23.1221 5.12101L20.3911 2.39001" stroke="#252525" stroke-width="2" stroke-miterlimit="10"/>
<path d="M11.3911 10.391L18.0001 17" stroke="#252525" stroke-width="2" stroke-miterlimit="10"/>
<path d="M39.531 1.46899L37.878 3.12199C37.316 3.68399 36.553 3.99999 35.757 3.99999H32.656C31.595 3.99999 30.578 4.42099 29.828 5.17199L25.828 9.17199C25.298 9.70199 25 10.422 25 11.172C25 12.734 26.266 14 27.828 14C28.578 14 29.298 13.702 29.828 13.172L32.293 10.707C32.745 10.255 33.358 10.001 33.998 9.99999C34.638 9.99999 35.252 10.254 35.705 10.707L37 12L43.298 18.294C43.747 18.746 44 19.362 44 20C44 20.64 43.746 21.254 43.293 21.707L34.707 30.293C34.254 30.746 33.64 31 33 31C32.36 31 31.746 30.746 31.293 30.293L30 29" stroke="#252525" stroke-width="2" stroke-miterlimit="10"/>
<path d="M48.531 10.469L42 17" stroke="#252525" stroke-width="2" stroke-miterlimit="10"/>
<path d="M27 31C26.36 31 25.746 30.746 25.293 30.293L16.707 21.707C16.254 21.254 16 20.64 16 20C16 19.36 16.254 18.746 16.707 18.293L19.293 15.707C19.746 15.254 20.36 15 21 15C21.64 15 22.254 15.254 22.707 15.707L31.293 24.293C31.746 24.746 32 25.36 32 26C32 26.64 31.746 27.254 31.293 27.707L28.707 30.293C28.254 30.746 27.64 31 27 31Z" stroke="#252525" stroke-width="2" stroke-miterlimit="10"/>
<path d="M51.6021 19.3979L49.4141 21.5859" stroke="#252525" stroke-width="2" stroke-miterlimit="10"/>
<path d="M55.602 15.3979L53.3979 17.6019" stroke="#252525" stroke-width="2" stroke-miterlimit="10"/>
<path d="M59 31H51" stroke="#252525" stroke-width="2" stroke-miterlimit="10"/>
<path d="M51.6021 42.6019L49.4141 40.4139" stroke="#252525" stroke-width="2" stroke-miterlimit="10"/>
<path d="M55.602 46.602L53.3979 44.3979" stroke="#252525" stroke-width="2" stroke-miterlimit="10"/>
<path d="M8.39795 19.3979L10.5859 21.5859" stroke="#252525" stroke-width="2" stroke-miterlimit="10"/>
<path d="M4.39795 15.3979L6.60195 17.6019" stroke="#252525" stroke-width="2" stroke-miterlimit="10"/>
<path d="M1 31H9" stroke="#252525" stroke-width="2" stroke-miterlimit="10"/>
<path d="M8.39795 42.6019L10.5859 40.4139" stroke="#252525" stroke-width="2" stroke-miterlimit="10"/>
<path d="M4.39795 46.602L6.60195 44.3979" stroke="#252525" stroke-width="2" stroke-miterlimit="10"/>
</svg>
