<svg width="60" height="60" viewBox="0 0 60 60" fill="none" xmlns="http://www.w3.org/2000/svg">
<path d="M35.0081 56.536C36.0271 56.345 37.0251 56.097 38.0001 55.795" stroke="#252525" stroke-width="2" stroke-miterlimit="10"/>
<path d="M30 56.9999C31.012 56.9999 32.011 56.9439 32.994 56.8359" stroke="#252525" stroke-width="2" stroke-miterlimit="10"/>
<path d="M25.003 50.402C15.817 48.16 9 39.876 9 30C9 24.201 11.355 18.956 15.156 15.156L16.588 16.588C16.853 16.853 17.213 17.002 17.589 17.002C18.368 17.001 19 16.368 19 15.588V9C19 7.895 18.105 7 17 7H10.415C9.634 7 9 7.634 9.001 8.415C9.001 8.79 9.15 9.15 9.415 9.415L10.91 10.91C6.024 15.796 3 22.544 3 30C3 44.238 14.021 55.902 27.998 56.927" stroke="#252525" stroke-width="2" stroke-miterlimit="10"/>
<path d="M30 51C28.981 51 27.978 50.927 26.998 50.787" stroke="#252525" stroke-width="2" stroke-miterlimit="10"/>
<path d="M24.992 3.46399C23.973 3.65499 22.975 3.90299 22 4.20499" stroke="#252525" stroke-width="2" stroke-miterlimit="10"/>
<path d="M30.0001 3C28.9881 3 27.9891 3.056 27.0061 3.164" stroke="#252525" stroke-width="2" stroke-miterlimit="10"/>
<path d="M34.997 9.598C44.183 11.84 51 20.124 51 30C51 35.799 48.645 41.044 44.844 44.844L43.415 43.415C43.15 43.15 42.79 43.001 42.415 43.001C41.634 43 41 43.634 41 44.415V51C41 52.105 41.895 53 43 53H49.588C50.368 53 51.001 52.368 51.001 51.588C51.001 51.213 50.852 50.853 50.587 50.587L49.09 49.09C53.976 44.204 57 37.456 57 30C57 15.762 45.979 4.098 32.002 3.073" stroke="#252525" stroke-width="2" stroke-miterlimit="10"/>
<path d="M30 9C31.019 9 32.022 9.073 33.002 9.213" stroke="#252525" stroke-width="2" stroke-miterlimit="10"/>
<path d="M12.438 34.563L34 13L47 26L25.438 47.563" stroke="#252525" stroke-width="2" stroke-miterlimit="10"/>
<path d="M28 37C30.7614 37 33 34.7614 33 32C33 29.2386 30.7614 27 28 27C25.2386 27 23 29.2386 23 32C23 34.7614 25.2386 37 28 37Z" stroke="#252525" stroke-width="2" stroke-miterlimit="10"/>
<path d="M20 40H18V42H20V40Z" fill="#252525"/>
<path d="M23 37H21V39H23V37Z" fill="#252525"/>
<path d="M35 25H33V27H35V25Z" fill="#252525"/>
<path d="M38 22H36V24H38V22Z" fill="#252525"/>
</svg>
