<svg width="60" height="60" viewBox="0 0 60 60" fill="none" xmlns="http://www.w3.org/2000/svg">
<path d="M49 57H25C22.791 57 21 55.209 21 53V51H53V53C53 55.209 51.209 57 49 57Z" fill="black"/>
<path d="M37 28C29.727 28 23.538 32.576 21.11 39H52.89C50.462 32.576 44.273 28 37 28ZM31 37C29.896 37 29 36.104 29 35C29 33.895 29.896 33 31 33C32.104 33 33 33.895 33 35C33 36.104 32.104 37 31 37ZM41 35C39.896 35 39 34.104 39 33C39 31.895 39.896 31 41 31C42.104 31 43 31.895 43 33C43 34.104 42.104 35 41 35Z" fill="black"/>
<path d="M53 41H48L43 46L38 41L32 47L26 41H21C19.343 41 18 42.791 18 45C18 47.209 19.343 49 21 49H53C54.657 49 56 47.209 56 45C56 42.791 54.657 41 53 41Z" fill="black"/>
<path d="M19 53V50.515C17.22 49.606 16 47.506 16 45C16 42.624 17.099 40.616 18.73 39.639L19.238 38.293C21.597 32.053 27.098 27.564 33.503 26.344L34 22H6L9.696 54.341C9.869 55.856 11.151 57 12.677 57H20.541C19.586 55.937 19 54.538 19 53ZM12.5 41C11.729 41 11.101 40.416 11.017 39.667L10.01 30.668C10.003 30.612 10 30.557 10 30.5C10 29.672 10.671 29 11.5 29C12.271 29 12.899 29.584 12.983 30.333L13.99 39.332C13.997 39.388 14 39.443 14 39.5C14 40.328 13.329 41 12.5 41Z" fill="black"/>
<path d="M36 15H4C3.448 15 3 15.448 3 16V19C3 19.552 3.448 20 4 20H36C36.552 20 37 19.552 37 19V16C37 15.448 36.552 15 36 15Z" fill="black"/>
<path d="M21 13L19.522 6.349C19.217 4.977 18 4 16.593 4H8V7H16.594L17.927 13H21Z" fill="black"/>
<path d="M29 8C30.1046 8 31 7.10457 31 6C31 4.89543 30.1046 4 29 4C27.8954 4 27 4.89543 27 6C27 7.10457 27.8954 8 29 8Z" fill="black"/>
<path d="M38 8C39.1046 8 40 7.10457 40 6C40 4.89543 39.1046 4 38 4C36.8954 4 36 4.89543 36 6C36 7.10457 36.8954 8 38 8Z" fill="black"/>
<path d="M46 21C47.1046 21 48 20.1046 48 19C48 17.8954 47.1046 17 46 17C44.8954 17 44 17.8954 44 19C44 20.1046 44.8954 21 46 21Z" fill="black"/>
<path d="M55 21C56.1046 21 57 20.1046 57 19C57 17.8954 56.1046 17 55 17C53.8954 17 53 17.8954 53 19C53 20.1046 53.8954 21 55 21Z" fill="black"/>
</svg>
