<svg width="47" height="47" viewBox="0 0 47 47" fill="none" xmlns="http://www.w3.org/2000/svg">
<path d="M43.0834 41.6146C43.0834 42.4175 42.4176 43.0834 41.6147 43.0834H5.3855C4.58258 43.0834 3.91675 42.4175 3.91675 41.6146C3.91675 40.8117 4.58258 40.1459 5.3855 40.1459H41.6147C42.4176 40.1459 43.0834 40.8117 43.0834 41.6146Z" fill="#292D32"/>
<path d="M30.1387 8.8517L9.10616 29.8842C8.30324 30.6871 7.01074 30.6871 6.22741 29.8842H6.20782C3.48574 27.1425 3.48574 22.7167 6.20782 19.9946L20.2099 5.99253C22.9516 3.25086 27.3774 3.25086 30.1191 5.99253C30.922 6.75628 30.922 8.06836 30.1387 8.8517Z" fill="#292D32"/>
<path d="M40.7725 16.6263L34.7996 10.6533C33.9967 9.85042 32.7042 9.85042 31.9208 10.6533L10.8883 31.6858C10.0854 32.4692 10.0854 33.7617 10.8883 34.5646L16.8612 40.5571C19.6029 43.2792 24.0287 43.2792 26.7704 40.5571L40.7529 26.555C43.5337 23.8133 43.5337 19.3679 40.7725 16.6263ZM24.9883 34.31L22.6187 36.6992C22.1292 37.1888 21.3262 37.1888 20.8171 36.6992C20.3275 36.2096 20.3275 35.4067 20.8171 34.8975L23.2062 32.5083C23.6762 32.0383 24.4987 32.0383 24.9883 32.5083C25.4779 32.9979 25.4779 33.84 24.9883 34.31ZM32.7629 26.5354L27.9846 31.3333C27.495 31.8033 26.6921 31.8033 26.1829 31.3333C25.6933 30.8438 25.6933 30.0408 26.1829 29.5317L30.9808 24.7338C31.4508 24.2638 32.2733 24.2638 32.7629 24.7338C33.2525 25.2429 33.2525 26.0458 32.7629 26.5354Z" fill="#292D32"/>
</svg>
