<svg width="47" height="47" viewBox="0 0 47 47" fill="none" xmlns="http://www.w3.org/2000/svg">
<path d="M34.6084 2.07405L28.7334 4.03238C28.1185 4.23801 27.625 4.69622 27.4468 5.31897L25.9173 10.7044C25.6196 11.7443 26.2228 12.7939 27.2646 13.0916C28.3045 13.3873 29.4149 12.7841 29.7125 11.7443L30.9972 7.33802L35.8304 5.74784C36.8566 5.40513 37.3971 4.32609 37.0563 3.29992C36.7136 2.27376 35.6326 1.7333 34.6084 2.07405ZM29.7125 11.7443L27.8757 18.2303C27.578 19.2721 26.4676 19.8753 25.4277 19.5776C24.3879 19.2799 23.7847 18.1696 24.0804 17.1297L25.6118 11.7443H15.452C13.3487 11.7443 11.7077 13.4989 11.8408 15.6002L13.2489 37.5081C13.4545 40.5925 16.1002 43.0776 19.1846 43.0776H27.3861C30.4724 43.0776 33.1162 40.5866 33.3218 37.5081L35.098 15.6002C35.2664 13.4891 33.6038 11.7443 31.4868 11.7443H29.7125ZM23.4694 23.4943C24.5504 23.4943 25.4277 24.3716 25.4277 25.4526C25.4277 26.5336 24.5504 27.4109 23.4694 27.4109C22.3884 27.4109 21.5111 26.5336 21.5111 25.4526C21.5111 24.3716 22.3884 23.4943 23.4694 23.4943ZM21.5111 31.3276C22.5921 31.3276 23.4694 32.2049 23.4694 33.2859C23.4694 34.3669 22.5921 35.2442 21.5111 35.2442C20.4301 35.2442 19.5527 34.3669 19.5527 33.2859C19.5527 32.2049 20.4301 31.3276 21.5111 31.3276Z" fill="#292D32"/>
</svg>
