<svg width="60" height="60" viewBox="0 0 60 60" fill="none" xmlns="http://www.w3.org/2000/svg">
<path d="M32.236 33C31.35 33 30.488 32.625 29.943 31.926C29.028 30.754 27.602 30 26 30C23.726 30 21.806 31.519 21.199 33.598L17.279 47.036C17.091 47.679 16.994 48.359 17 49.063C17.033 52.806 20.189 55.964 23.934 56C27.539 56.033 30.522 53.342 30.948 49.859C31.008 49.366 31.434 49 31.932 49H41.069C41.566 49 41.993 49.366 42.053 49.859C42.479 53.341 45.461 56.033 49.067 56C52.811 55.965 55.967 52.807 56.001 49.063C56.007 48.359 55.909 47.678 55.722 47.036L51.802 33.598C51.194 31.519 49.274 30 47 30C45.397 30 43.971 30.754 43.057 31.926C42.511 32.625 41.649 33 40.763 33H32.236ZM30.5 43H29V44.5C29 45.328 28.328 46 27.5 46C26.672 46 26 45.328 26 44.5V43H24.5C23.672 43 23 42.328 23 41.5C23 40.672 23.672 40 24.5 40H26V38.5C26 37.672 26.672 37 27.5 37C28.328 37 29 37.672 29 38.5V40H30.5C31.328 40 32 40.672 32 41.5C32 42.328 31.328 43 30.5 43ZM43 41C41.896 41 41 40.104 41 39C41 37.896 41.896 37 43 37C44.104 37 45 37.896 45 39C45 40.104 44.104 41 43 41ZM48 45C46.896 45 46 44.104 46 43C46 41.896 46.896 41 48 41C49.104 41 50 41.896 50 43C50 44.104 49.104 45 48 45Z" fill="#292D32"/>
<path d="M16 38C16.287 38 16.547 37.879 16.729 37.684L16.951 37.448L18.319 32.759C19.308 29.367 22.467 27 26 27C26.227 27 26.45 27.02 26.674 27.037C28.741 24.598 30 21.449 30 18C30 10.268 23.732 4 16 4C8.268 4 2 10.268 2 18C2 21.704 3.439 25.073 5.788 27.577L15.27 37.683C15.453 37.879 15.713 38 16 38ZM11 18C11 15.238 13.238 13 16 13C18.762 13 21 15.238 21 18C21 20.762 18.762 23 16 23C13.238 23 11 20.762 11 18Z" fill="#292D32"/>
<path d="M33 27.5C33 23.357 36.357 20 40.5 20C41.765 20 42.955 20.316 44 20.869V5.982C44 4.832 44.952 4 46 4C46.265 4 46.535 4.059 46.799 4.179L57.413 8.993C57.771 9.155 58 9.511 58 9.903V16.915C58 17.54 57.497 18 56.922 18C56.769 18 56.611 17.971 56.458 17.9L48 13.975V27.083C47.67 27.041 47.339 27 47 27C44.801 27 42.676 27.919 41.172 29.521C40.278 30.47 39.119 31 37.906 31H33.865C33.313 29.955 33 28.764 33 27.5Z" fill="#292D32"/>
</svg>
