<svg width="47" height="47" viewBox="0 0 47 47" fill="none" xmlns="http://www.w3.org/2000/svg">
<path d="M29.3162 44.552H17.5662C6.93249 44.552 2.38916 40.0087 2.38916 29.375V17.625C2.38916 6.99121 6.93249 2.44788 17.5662 2.44788H29.3162C39.95 2.44788 44.4933 6.99121 44.4933 17.625V29.375C44.4933 40.0087 39.9696 44.552 29.3162 44.552ZM17.5662 5.38538C8.53833 5.38538 5.32666 8.59704 5.32666 17.625V29.375C5.32666 38.4029 8.53833 41.6145 17.5662 41.6145H29.3162C38.3442 41.6145 41.5558 38.4029 41.5558 29.375V17.625C41.5558 8.59704 38.3442 5.38538 29.3162 5.38538H17.5662Z" fill="#292D32"/>
<path d="M22.4229 35.3676C21.9529 35.3676 20.8171 35.1913 20.1513 33.4876L17.9188 27.8476C17.6054 27.0446 16.4892 26.3005 15.6471 26.3005L3.89709 26.3396C3.09418 26.3396 2.42834 25.6934 2.42834 24.8709C2.42834 24.068 3.07459 23.4021 3.89709 23.4021L15.6471 23.363H15.6667C17.7229 23.363 19.9163 24.8513 20.68 26.7705L22.4621 31.2746L26.4963 21.0521C27.1033 19.5246 28.1804 19.3092 28.6308 19.2701C29.0813 19.2505 30.1779 19.3484 30.9417 20.7976L32.9783 24.6555C33.3308 25.3213 34.3883 25.9676 35.1521 25.9676H43.1029C43.9058 25.9676 44.5717 26.6334 44.5717 27.4363C44.5717 28.2392 43.9058 28.9051 43.1029 28.9051H35.1521C33.2917 28.9051 31.255 27.6713 30.3933 26.0263L28.8658 23.128L24.7533 33.4876C24.0288 35.1717 22.8733 35.3676 22.4229 35.3676Z" fill="#292D32"/>
<path d="M43.0833 15.2945V24.4791H35.0933C34.8583 24.4595 34.3491 24.1658 34.2316 23.9504L32.195 20.0925C31.392 18.565 30.0016 17.7033 28.5133 17.7816C27.025 17.86 25.752 18.8587 25.1058 20.4841L22.4033 27.26L22.0116 26.2416C21.052 23.7545 18.3104 21.8745 15.6079 21.8745L3.91663 21.9333V15.2945C3.91663 8.16621 8.16621 3.91663 15.2945 3.91663H31.7054C38.8337 3.91663 43.0833 8.16621 43.0833 15.2945Z" fill="#292D32"/>
<path d="M43.0833 31.7054V27.4166H35.0933C33.7812 27.4166 32.2341 26.4766 31.627 25.3212L29.5904 21.4633C29.042 20.4254 28.2587 20.4841 27.8279 21.5612L23.3237 32.9391C22.8341 34.212 22.0116 34.212 21.5025 32.9391L19.27 27.2991C18.7412 25.9283 17.0962 24.812 15.6275 24.812L3.91663 24.8708V31.7054C3.91663 38.7162 8.02913 42.9462 14.942 43.0637C15.1575 43.0833 15.3925 43.0833 15.6079 43.0833H31.2745C31.5683 43.0833 31.862 43.0833 32.1362 43.0637C39.01 42.907 43.0833 38.6966 43.0833 31.7054Z" fill="#292D32"/>
<path d="M3.91666 24.8708V31.3529C3.87749 30.7263 3.85791 30.0604 3.85791 29.375V24.8708H3.91666Z" fill="#292D32"/>
</svg>
