<svg width="60" height="60" viewBox="0 0 60 60" fill="none" xmlns="http://www.w3.org/2000/svg">
<path d="M12 38L19 33L26 43L31 39H41.37C41.767 37.705 42 36.37 42 35C42 28.925 37.075 24 31 24C27.276 24 23.99 25.855 22 28.688C20.01 25.855 16.724 24 13 24C6.925 24 2 28.925 2 35C2 36.021 2.136 37.02 2.363 38H12Z" fill="black"/>
<path d="M32.053 42L25.377 47.341L18.279 37.201L12.961 41H3.38599C7.91199 50.952 22 58 22 58C22 58 35.154 51.421 40.126 42H32.053Z" fill="black"/>
<path d="M45.5 3C38.044 3 32 9.044 32 16.5C32 18.545 32.468 20.476 33.282 22.213C37.581 22.979 41.152 25.858 42.879 29.74C43.727 29.908 44.603 30 45.5 30C52.956 30 59 23.956 59 16.5C59 9.044 52.956 3 45.5 3ZM45.5 15C48.538 15 51 17.239 51 20C51 22.288 49.308 24.213 47 24.807V25.5C47 26.328 46.329 27 45.5 27C44.671 27 44 26.328 44 25.5V24.809C41.517 24.18 40 22.08 40 20.5C40 19.672 40.671 19 41.5 19C42.227 19 42.832 19.516 42.97 20.202C43.099 21.209 44.207 22 45.5 22C46.881 22 48 21.105 48 20C48 18.896 46.881 18 45.5 18C42.462 18 40 15.761 40 13C40 10.712 41.692 8.787 44 8.193V7.5C44 6.672 44.671 6 45.5 6C46.329 6 47 6.672 47 7.5V8.191C49.483 8.82 51 10.92 51 12.5C51 13.328 50.329 14 49.5 14C48.773 14 48.168 13.484 48.03 12.798C47.901 11.791 46.793 11 45.5 11C44.119 11 43 11.895 43 13C43 14.104 44.119 15 45.5 15Z" fill="black"/>
<path d="M3 13.5C3 12.672 3.672 12 4.5 12C5.328 12 6 12.672 6 13.5V22.5C6 23.328 5.328 24 4.5 24C3.672 24 3 23.328 3 22.5V13.5Z" fill="black"/>
<path d="M25 5.5C25 4.672 25.672 4 26.5 4C27.328 4 28 4.672 28 5.5V14.5C28 15.328 27.328 16 26.5 16C25.672 16 25 15.328 25 14.5V5.5Z" fill="black"/>
<path d="M54 32.5C54 31.672 54.672 31 55.5 31C56.328 31 57 31.672 57 32.5V39.5C57 40.328 56.328 41 55.5 41C54.672 41 54 40.328 54 39.5V32.5Z" fill="black"/>
<path d="M15.5 19C18.5376 19 21 16.5376 21 13.5C21 10.4624 18.5376 8 15.5 8C12.4624 8 10 10.4624 10 13.5C10 16.5376 12.4624 19 15.5 19Z" fill="black"/>
<path d="M37 52.5C37 51.672 37.672 51 38.5 51C39.328 51 40 51.672 40 52.5V56.5C40 57.328 39.328 58 38.5 58C37.672 58 37 57.328 37 56.5V52.5Z" fill="black"/>
<path d="M50 58C53.866 58 57 54.866 57 51C57 47.134 53.866 44 50 44C46.134 44 43 47.134 43 51C43 54.866 46.134 58 50 58Z" fill="black"/>
</svg>
