<svg width="47" height="47" viewBox="0 0 47 47" fill="none" xmlns="http://www.w3.org/2000/svg">
<path d="M13.7083 3.91663H11.75C5.87496 3.91663 3.91663 7.42204 3.91663 11.75V13.7083V41.125C3.91663 42.7504 5.75746 43.6708 7.04996 42.6916L10.3987 40.185C11.182 39.5975 12.2787 39.6758 12.9837 40.3808L16.2345 43.6512C16.9983 44.415 18.2516 44.415 19.0154 43.6512L22.3054 40.3612C22.9908 39.6758 24.0875 39.5975 24.8512 40.185L28.2 42.6916C29.4925 43.6512 31.3333 42.7308 31.3333 41.125V7.83329C31.3333 5.67913 33.0958 3.91663 35.25 3.91663H13.7083ZM11.6912 27.4362C10.6141 27.4362 9.73288 26.555 9.73288 25.4779C9.73288 24.4008 10.6141 23.5195 11.6912 23.5195C12.7683 23.5195 13.6495 24.4008 13.6495 25.4779C13.6495 26.555 12.7683 27.4362 11.6912 27.4362ZM11.6912 19.6029C10.6141 19.6029 9.73288 18.7216 9.73288 17.6445C9.73288 16.5675 10.6141 15.6862 11.6912 15.6862C12.7683 15.6862 13.6495 16.5675 13.6495 17.6445C13.6495 18.7216 12.7683 19.6029 11.6912 19.6029ZM23.5 26.9466H17.625C16.822 26.9466 16.1562 26.2808 16.1562 25.4779C16.1562 24.675 16.822 24.0091 17.625 24.0091H23.5C24.3029 24.0091 24.9687 24.675 24.9687 25.4779C24.9687 26.2808 24.3029 26.9466 23.5 26.9466ZM23.5 19.1133H17.625C16.822 19.1133 16.1562 18.4475 16.1562 17.6445C16.1562 16.8416 16.822 16.1758 17.625 16.1758H23.5C24.3029 16.1758 24.9687 16.8416 24.9687 17.6445C24.9687 18.4475 24.3029 19.1133 23.5 19.1133Z" fill="#292D32"/>
<path d="M35.2696 3.91663V6.85413C36.5621 6.85413 37.7959 7.38288 38.6967 8.26413C39.6367 9.22371 40.1459 10.4575 40.1459 11.75V16.4891C40.1459 17.9383 39.4996 18.6041 38.0309 18.6041H34.2709V7.85288C34.2709 7.30454 34.7213 6.85413 35.2696 6.85413V3.91663ZM35.2696 3.91663C33.0959 3.91663 31.3334 5.67913 31.3334 7.85288V21.5416H38.0309C41.125 21.5416 43.0834 19.5833 43.0834 16.4891V11.75C43.0834 9.59579 42.2021 7.63746 40.7921 6.20788C39.3625 4.79788 37.4238 3.93621 35.2696 3.91663C35.2892 3.91663 35.2696 3.91663 35.2696 3.91663Z" fill="#292D32"/>
</svg>
