<svg width="47" height="47" viewBox="0 0 47 47" fill="none" xmlns="http://www.w3.org/2000/svg">
<path d="M37.0909 10.6141L26.9663 4.7587C25.0275 3.64245 21.9921 3.64245 20.0534 4.7587L9.83086 10.6533C5.77711 13.3949 5.54211 13.8062 5.54211 18.1733V28.807C5.54211 33.1741 5.77711 33.6049 9.9092 36.3858L20.0338 42.2412C21.0129 42.8091 22.2663 43.0833 23.5 43.0833C24.7338 43.0833 25.9871 42.8091 26.9467 42.2412L37.1692 36.3466C41.2229 33.6049 41.4579 33.1937 41.4579 28.8266V18.1733C41.4579 13.8062 41.2229 13.3949 37.0909 10.6141ZM23.5 29.8645C19.9946 29.8645 17.1354 27.0054 17.1354 23.4999C17.1354 19.9945 19.9946 17.1354 23.5 17.1354C27.0054 17.1354 29.8646 19.9945 29.8646 23.4999C29.8646 27.0054 27.0054 29.8645 23.5 29.8645Z" fill="#292D32"/>
</svg>
